<svg width="97" height="88" viewBox="0 0 97 88" fill="none" xmlns="http://www.w3.org/2000/svg">
<mask id="mask0_7_19" style="mask-type:alpha" maskUnits="userSpaceOnUse" x="12" y="10" width="70" height="64">
<path d="M62.6459 51.3329H59.453L58.3213 50.3429C63.1713 45.2096 65.6772 38.2063 64.303 30.7629C62.4034 20.5696 53.0268 12.4296 41.7101 11.1829C24.6138 9.27627 10.2255 22.3296 12.3272 37.8396C13.7013 48.1063 22.6738 56.6129 33.9097 58.3363C42.1143 59.5829 49.8338 57.3096 55.4922 52.9096L56.5834 53.9363V56.8329L73.7605 72.4163C75.4176 73.9196 78.1255 73.9196 79.7826 72.4163C81.4397 70.9129 81.4397 68.4563 79.7826 66.9529L62.6459 51.3329ZM38.3959 51.3329C28.3322 51.3329 20.2084 43.9629 20.2084 34.8329C20.2084 25.7029 28.3322 18.3329 38.3959 18.3329C48.4597 18.3329 56.5834 25.7029 56.5834 34.8329C56.5834 43.9629 48.4597 51.3329 38.3959 51.3329Z" fill="black"/>
</mask>
<g mask="url(#mask0_7_19)">
<rect x="-52.647" y="-109.853" width="394.1" height="240.858" fill="#A238AC"/>
</g>
</svg>
