<svg width="66" height="61" viewBox="0 0 66 61" fill="none" xmlns="http://www.w3.org/2000/svg">
<path d="M35.2285 1.33701L42.6319 17.682C43.1984 18.9332 44.425 19.7903 45.8331 19.9128L63.8685 21.4781C65.9091 21.7656 66.7232 24.188 65.2436 25.583L51.6579 36.6305C50.5578 37.5249 50.0573 38.9305 50.3598 40.2881L54.309 58.1824C54.6555 60.147 52.5269 61.6484 50.7008 60.7167L34.959 51.7935C33.7489 51.1067 32.2528 51.1067 31.0428 51.7935L15.3009 60.7113C13.4803 61.6377 11.3462 60.1417 11.6927 58.1771L15.6419 40.2828C15.939 38.9251 15.4439 37.5196 14.3439 36.6251L0.752651 25.5883C-0.721427 24.1987 0.0926163 21.7709 2.12772 21.4834L20.1632 19.9181C21.5713 19.7957 22.7978 18.9385 23.3644 17.6873L30.7677 1.34234C31.6863 -0.446558 34.3154 -0.446558 35.2285 1.33701Z" fill="#FDD835"/>
<path d="M34.6895 18.6616L33.4354 6.61845C33.3859 5.94761 33.2429 4.79761 34.3539 4.79761C35.234 4.79761 35.7125 6.57053 35.7125 6.57053L39.4747 16.2391C40.8938 19.918 40.3108 21.1799 38.9412 21.9252C37.3681 22.7771 35.047 22.1116 34.6895 18.6616Z" fill="#FFFF8D"/>
<path d="M50.2057 35.5602L60.9973 27.409C61.5308 26.9778 62.4933 26.291 61.7233 25.5083C61.1128 24.8907 59.4627 25.7799 59.4627 25.7799L50.0187 29.3523C47.2025 30.2947 45.3324 31.6896 45.1674 33.4466C44.9529 35.7892 47.1255 37.594 50.2057 35.5602Z" fill="#F4B400"/>
</svg>
